<svg data-v-423bf9ae="" xmlns="http://www.w3.org/2000/svg" viewBox="0 0 511 112" class="iconLeftSlogan"><!----><!----><!----><g data-v-423bf9ae="" id="35fc6820-4896-4119-bfdd-56052eaa8aa1" fill="black" transform="matrix(4.285714285714286,0,0,4.285714285714286,85.12968164682388,-10.114286763327463)"><path d="M3.46 13.13L3.46 13.13L3.46 13.13Q2.78 13.13 2.25 12.99L2.25 12.99L2.25 12.99Q1.73 12.84 1.38 12.59L1.38 12.59L1.38 12.59Q1.03 12.33 0.85 11.97L0.85 11.97L0.85 11.97Q0.67 11.60 0.67 11.16L0.67 11.16L0.67 11.16Q0.67 10.74 0.93 10.48L0.93 10.48L0.93 10.48Q1.20 10.22 1.68 10.22L1.68 10.22L1.68 10.22Q1.70 10.66 1.81 11.06L1.81 11.06L1.81 11.06Q1.93 11.46 2.15 11.77L2.15 11.77L2.15 11.77Q2.38 12.08 2.73 12.26L2.73 12.26L2.73 12.26Q3.08 12.45 3.57 12.45L3.57 12.45L3.57 12.45Q4.51 12.45 5.04 11.99L5.04 11.99L5.04 11.99Q5.57 11.54 5.57 10.68L5.57 10.68L5.57 10.68Q5.57 10.30 5.46 10.01L5.46 10.01L5.46 10.01Q5.35 9.71 5.10 9.46L5.10 9.46L5.10 9.46Q4.85 9.21 4.43 8.99L4.43 8.99L4.43 8.99Q4.02 8.76 3.40 8.50L3.40 8.50L3.40 8.50Q2.75 8.24 2.27 7.93L2.27 7.93L2.27 7.93Q1.78 7.63 1.46 7.26L1.46 7.26L1.46 7.26Q1.14 6.88 0.98 6.43L0.98 6.43L0.98 6.43Q0.83 5.97 0.83 5.39L0.83 5.39L0.83 5.39Q0.83 4.79 1.06 4.32L1.06 4.32L1.06 4.32Q1.29 3.85 1.70 3.52L1.70 3.52L1.70 3.52Q2.11 3.20 2.67 3.03L2.67 3.03L2.67 3.03Q3.23 2.86 3.89 2.86L3.89 2.86L3.89 2.86Q4.52 2.86 5.00 2.99L5.00 2.99L5.00 2.99Q5.49 3.12 5.82 3.34L5.82 3.34L5.82 3.34Q6.16 3.55 6.33 3.84L6.33 3.84L6.33 3.84Q6.51 4.12 6.51 4.43L6.51 4.43L6.51 4.43Q6.51 4.88 6.21 5.11L6.21 5.11L6.21 5.11Q5.91 5.34 5.41 5.34L5.41 5.34L5.41 5.34Q5.41 5.01 5.33 4.69L5.33 4.69L5.33 4.69Q5.25 4.38 5.07 4.13L5.07 4.13L5.07 4.13Q4.88 3.88 4.58 3.72L4.58 3.72L4.58 3.72Q4.28 3.56 3.83 3.56L3.83 3.56L3.83 3.56Q3.43 3.56 3.11 3.67L3.11 3.67L3.11 3.67Q2.80 3.79 2.58 4.00L2.58 4.00L2.58 4.00Q2.36 4.20 2.24 4.50L2.24 4.50L2.24 4.50Q2.13 4.79 2.13 5.15L2.13 5.15L2.13 5.15Q2.13 5.57 2.24 5.89L2.24 5.89L2.24 5.89Q2.34 6.21 2.60 6.46L2.60 6.46L2.60 6.46Q2.86 6.72 3.27 6.95L3.27 6.95L3.27 6.95Q3.69 7.18 4.30 7.42L4.30 7.42L4.30 7.42Q4.92 7.68 5.40 7.96L5.40 7.96L5.40 7.96Q5.88 8.24 6.21 8.58L6.21 8.58L6.21 8.58Q6.55 8.93 6.73 9.35L6.73 9.35L6.73 9.35Q6.90 9.78 6.90 10.32L6.90 10.32L6.90 10.32Q6.90 10.99 6.66 11.51L6.66 11.51L6.66 11.51Q6.42 12.03 5.97 12.39L5.97 12.39L5.97 12.39Q5.52 12.76 4.88 12.94L4.88 12.94L4.88 12.94Q4.25 13.13 3.46 13.13ZM11.73 12.41L11.77 12.41L11.77 13.00L8.00 13.00L8.00 12.41L8.19 12.41L8.19 12.41Q8.43 12.41 8.63 12.37L8.63 12.37L8.63 12.37Q8.83 12.34 8.97 12.23L8.97 12.23L8.97 12.23Q9.11 12.13 9.19 11.93L9.19 11.93L9.19 11.93Q9.27 11.73 9.27 11.40L9.27 11.40L9.27 7.03L9.27 7.03Q9.27 6.73 9.19 6.54L9.19 6.54L9.19 6.54Q9.11 6.35 8.96 6.25L8.96 6.25L8.96 6.25Q8.82 6.15 8.62 6.11L8.62 6.11L8.62 6.11Q8.42 6.08 8.19 6.08L8.19 6.08L8.15 6.08L8.15 5.49L10.34 5.49L10.53 6.62L10.60 6.62L10.60 6.62Q10.81 6.23 11.04 5.98L11.04 5.98L11.04 5.98Q11.27 5.74 11.54 5.60L11.54 5.60L11.54 5.60Q11.80 5.46 12.09 5.40L12.09 5.40L12.09 5.40Q12.38 5.35 12.71 5.35L12.71 5.35L12.71 5.35Q13.05 5.35 13.36 5.42L13.36 5.42L13.36 5.42Q13.67 5.49 13.93 5.64L13.93 5.64L13.93 5.64Q14.19 5.79 14.40 6.03L14.40 6.03L14.40 6.03Q14.61 6.28 14.74 6.62L14.74 6.62L14.85 6.62L14.85 6.62Q15.07 6.23 15.31 5.98L15.31 5.98L15.31 5.98Q15.56 5.74 15.84 5.60L15.84 5.60L15.84 5.60Q16.11 5.46 16.42 5.40L16.42 5.40L16.42 5.40Q16.72 5.35 17.05 5.35L17.05 5.35L17.05 5.35Q17.58 5.35 18.01 5.51L18.01 5.51L18.01 5.51Q18.43 5.67 18.72 6.01L18.72 6.01L18.72 6.01Q19.02 6.34 19.17 6.86L19.17 6.86L19.17 6.86Q19.33 7.38 19.33 8.09L19.33 8.09L19.33 11.40L19.33 11.40Q19.33 11.73 19.41 11.93L19.41 11.93L19.41 11.93Q19.50 12.13 19.64 12.23L19.64 12.23L19.64 12.23Q19.78 12.34 19.98 12.37L19.98 12.37L19.98 12.37Q20.18 12.41 20.41 12.41L20.41 12.41L20.45 12.41L20.45 13.00L18.02 13.00L18.02 8.16L18.02 8.16Q18.02 7.70 17.94 7.35L17.94 7.35L17.94 7.35Q17.86 6.99 17.69 6.75L17.69 6.75L17.69 6.75Q17.51 6.50 17.23 6.37L17.23 6.37L17.23 6.37Q16.95 6.25 16.55 6.25L16.55 6.25L16.55 6.25Q16.11 6.25 15.81 6.42L15.81 6.42L15.81 6.42Q15.52 6.58 15.33 6.87L15.33 6.87L15.33 6.87Q15.15 7.16 15.07 7.53L15.07 7.53L15.07 7.53Q14.99 7.91 14.99 8.33L14.99 8.33L14.99 11.40L14.99 11.40Q14.99 11.73 15.07 11.93L15.07 11.93L15.07 11.93Q15.16 12.13 15.30 12.23L15.30 12.23L15.30 12.23Q15.44 12.34 15.64 12.37L15.64 12.37L15.64 12.37Q15.84 12.41 16.07 12.41L16.07 12.41L16.11 12.41L16.11 13.00L13.68 13.00L13.68 8.16L13.68 8.16Q13.68 7.70 13.60 7.35L13.60 7.35L13.60 7.35Q13.52 6.99 13.35 6.75L13.35 6.75L13.35 6.75Q13.17 6.50 12.89 6.37L12.89 6.37L12.89 6.37Q12.61 6.25 12.21 6.25L12.21 6.25L12.21 6.25Q11.75 6.25 11.44 6.43L11.44 6.43L11.44 6.43Q11.13 6.62 10.94 6.93L10.94 6.93L10.94 6.93Q10.75 7.25 10.66 7.66L10.66 7.66L10.66 7.66Q10.58 8.07 10.58 8.52L10.58 8.52L10.58 11.47L10.58 11.47Q10.58 11.78 10.67 11.97L10.67 11.97L10.67 11.97Q10.77 12.15 10.92 12.25L10.92 12.25L10.92 12.25Q11.08 12.35 11.29 12.38L11.29 12.38L11.29 12.38Q11.50 12.41 11.73 12.41L11.73 12.41ZM28.15 9.23L28.15 9.23L28.15 9.23Q28.15 11.20 27.31 12.17L27.31 12.17L27.31 12.17Q26.48 13.13 24.86 13.13L24.86 13.13L24.86 13.13Q24.10 13.13 23.50 12.89L23.50 12.89L23.50 12.89Q22.90 12.65 22.48 12.17L22.48 12.17L22.48 12.17Q22.06 11.68 21.84 10.95L21.84 10.95L21.84 10.95Q21.62 10.21 21.62 9.23L21.62 9.23L21.62 9.23Q21.62 7.27 22.45 6.31L22.45 6.31L22.45 6.31Q23.28 5.35 24.90 5.35L24.90 5.35L24.90 5.35Q25.66 5.35 26.26 5.59L26.26 5.59L26.26 5.59Q26.87 5.82 27.29 6.31L27.29 6.31L27.29 6.31Q27.71 6.79 27.93 7.52L27.93 7.52L27.93 7.52Q28.15 8.24 28.15 9.23ZM22.97 9.23L22.97 9.23L22.97 9.23Q22.97 10.01 23.07 10.60L23.07 10.60L23.07 10.60Q23.17 11.20 23.40 11.60L23.40 11.60L23.40 11.60Q23.63 12.00 24.00 12.20L24.00 12.20L24.00 12.20Q24.36 12.41 24.89 12.41L24.89 12.41L24.89 12.41Q25.42 12.41 25.78 12.20L25.78 12.20L25.78 12.20Q26.14 12.00 26.37 11.60L26.37 11.60L26.37 11.60Q26.59 11.20 26.69 10.60L26.69 10.60L26.69 10.60Q26.79 10.01 26.79 9.23L26.79 9.23L26.79 9.23Q26.79 8.45 26.69 7.86L26.69 7.86L26.69 7.86Q26.58 7.27 26.36 6.88L26.36 6.88L26.36 6.88Q26.13 6.49 25.77 6.29L25.77 6.29L25.77 6.29Q25.40 6.09 24.88 6.09L24.88 6.09L24.88 6.09Q24.35 6.09 23.99 6.29L23.99 6.29L23.99 6.29Q23.63 6.49 23.40 6.88L23.40 6.88L23.40 6.88Q23.17 7.27 23.07 7.86L23.07 7.86L23.07 7.86Q22.97 8.45 22.97 9.23ZM36.23 9.23L36.23 9.23L36.23 9.23Q36.23 11.20 35.39 12.17L35.39 12.17L35.39 12.17Q34.56 13.13 32.94 13.13L32.94 13.13L32.94 13.13Q32.18 13.13 31.58 12.89L31.58 12.89L31.58 12.89Q30.98 12.65 30.56 12.17L30.56 12.17L30.56 12.17Q30.14 11.68 29.92 10.95L29.92 10.95L29.92 10.95Q29.70 10.21 29.70 9.23L29.70 9.23L29.70 9.23Q29.70 7.27 30.53 6.31L30.53 6.31L30.53 6.31Q31.36 5.35 32.98 5.35L32.98 5.35L32.98 5.35Q33.74 5.35 34.34 5.59L34.34 5.59L34.34 5.59Q34.95 5.82 35.37 6.31L35.37 6.31L35.37 6.31Q35.79 6.79 36.01 7.52L36.01 7.52L36.01 7.52Q36.23 8.24 36.23 9.23ZM31.05 9.23L31.05 9.23L31.05 9.23Q31.05 10.01 31.15 10.60L31.15 10.60L31.15 10.60Q31.25 11.20 31.48 11.60L31.48 11.60L31.48 11.60Q31.71 12.00 32.08 12.20L32.08 12.20L32.08 12.20Q32.44 12.41 32.97 12.41L32.97 12.41L32.97 12.41Q33.50 12.41 33.86 12.20L33.86 12.20L33.86 12.20Q34.22 12.00 34.45 11.60L34.45 11.60L34.45 11.60Q34.67 11.20 34.77 10.60L34.77 10.60L34.77 10.60Q34.87 10.01 34.87 9.23L34.87 9.23L34.87 9.23Q34.87 8.45 34.77 7.86L34.77 7.86L34.77 7.86Q34.67 7.27 34.44 6.88L34.44 6.88L34.44 6.88Q34.21 6.49 33.85 6.29L33.85 6.29L33.85 6.29Q33.48 6.09 32.96 6.09L32.96 6.09L32.96 6.09Q32.43 6.09 32.07 6.29L32.07 6.29L32.07 6.29Q31.71 6.49 31.48 6.88L31.48 6.88L31.48 6.88Q31.25 7.27 31.15 7.86L31.15 7.86L31.15 7.86Q31.05 8.45 31.05 9.23ZM40.71 12.39L40.71 12.39L40.71 12.39Q40.97 12.39 41.18 12.37L41.18 12.37L41.18 12.37Q41.39 12.34 41.61 12.30L41.61 12.30L41.61 12.91L41.61 12.91Q41.52 12.95 41.38 13.00L41.38 13.00L41.38 13.00Q41.23 13.04 41.07 13.07L41.07 13.07L41.07 13.07Q40.90 13.10 40.71 13.11L40.71 13.11L40.71 13.11Q40.53 13.13 40.37 13.13L40.37 13.13L40.37 13.13Q39.83 13.13 39.45 13.02L39.45 13.02L39.45 13.02Q39.07 12.91 38.82 12.65L38.82 12.65L38.82 12.65Q38.58 12.40 38.46 11.98L38.46 11.98L38.46 11.98Q38.34 11.57 38.34 10.96L38.34 10.96L38.34 6.29L37.27 6.29L37.27 5.73L37.27 5.73Q37.52 5.73 37.83 5.63L37.83 5.63L37.83 5.63Q38.13 5.52 38.36 5.28L38.36 5.28L38.36 5.28Q38.60 5.02 38.75 4.67L38.75 4.67L38.75 4.67Q38.90 4.31 39.01 3.77L39.01 3.77L39.65 3.77L39.65 5.49L41.48 5.49L41.48 6.29L39.65 6.29L39.65 11.01L39.65 11.01Q39.65 11.72 39.94 12.06L39.94 12.06L39.94 12.06Q40.23 12.39 40.71 12.39ZM45.91 12.41L45.95 12.41L45.95 13.00L42.18 13.00L42.18 12.41L42.29 12.41L42.29 12.41Q42.53 12.41 42.74 12.37L42.74 12.37L42.74 12.37Q42.95 12.34 43.10 12.23L43.10 12.23L43.10 12.23Q43.26 12.13 43.35 11.93L43.35 11.93L43.35 11.93Q43.44 11.73 43.44 11.40L43.44 11.40L43.44 3.90L43.44 3.90Q43.44 3.59 43.35 3.40L43.35 3.40L43.35 3.40Q43.26 3.21 43.10 3.11L43.10 3.11L43.10 3.11Q42.94 3.01 42.73 2.98L42.73 2.98L42.73 2.98Q42.53 2.95 42.29 2.95L42.29 2.95L42.18 2.95L42.18 2.36L44.76 2.36L44.76 5.43L44.76 5.43Q44.76 5.63 44.75 5.83L44.75 5.83L44.75 5.83Q44.75 6.04 44.73 6.22L44.73 6.22L44.73 6.22Q44.72 6.43 44.71 6.62L44.71 6.62L44.78 6.62L44.78 6.62Q45.40 5.35 46.83 5.35L46.83 5.35L46.83 5.35Q47.43 5.35 47.89 5.51L47.89 5.51L47.89 5.51Q48.35 5.67 48.67 6.01L48.67 6.01L48.67 6.01Q48.98 6.34 49.14 6.86L49.14 6.86L49.14 6.86Q49.31 7.38 49.31 8.09L49.31 8.09L49.31 11.40L49.31 11.40Q49.31 11.73 49.39 11.93L49.39 11.93L49.39 11.93Q49.47 12.13 49.62 12.23L49.62 12.23L49.62 12.23Q49.76 12.34 49.96 12.37L49.96 12.37L49.96 12.37Q50.16 12.41 50.39 12.41L50.39 12.41L50.43 12.41L50.43 13.00L48.00 13.00L48.00 8.16L48.00 8.16Q48.00 7.70 47.91 7.35L47.91 7.35L47.91 7.35Q47.83 6.99 47.65 6.75L47.65 6.75L47.65 6.75Q47.47 6.50 47.17 6.37L47.17 6.37L47.17 6.37Q46.88 6.25 46.46 6.25L46.46 6.25L46.46 6.25Q46.02 6.25 45.70 6.41L45.70 6.41L45.70 6.41Q45.38 6.57 45.18 6.87L45.18 6.87L45.18 6.87Q44.97 7.16 44.86 7.58L44.86 7.58L44.86 7.58Q44.76 8.00 44.76 8.52L44.76 8.52L44.76 11.47L44.76 11.47Q44.76 11.78 44.85 11.97L44.85 11.97L44.85 11.97Q44.95 12.15 45.10 12.25L45.10 12.25L45.10 12.25Q45.26 12.35 45.47 12.38L45.47 12.38L45.47 12.38Q45.68 12.41 45.91 12.41L45.91 12.41ZM64.72 13.00L62.48 13.00L61.32 11.76L61.32 11.76Q61.07 12.05 60.76 12.30L60.76 12.30L60.76 12.30Q60.46 12.55 60.09 12.74L60.09 12.74L60.09 12.74Q59.72 12.92 59.27 13.03L59.27 13.03L59.27 13.03Q58.82 13.13 58.29 13.13L58.29 13.13L58.29 13.13Q57.45 13.13 56.82 12.92L56.82 12.92L56.82 12.92Q56.20 12.71 55.78 12.32L55.78 12.32L55.78 12.32Q55.37 11.94 55.17 11.40L55.17 11.40L55.17 11.40Q54.96 10.86 54.96 10.19L54.96 10.19L54.96 10.19Q54.96 9.60 55.12 9.16L55.12 9.16L55.12 9.16Q55.28 8.72 55.57 8.38L55.57 8.38L55.57 8.38Q55.86 8.05 56.28 7.79L56.28 7.79L56.28 7.79Q56.69 7.54 57.20 7.33L57.20 7.33L57.20 7.33Q56.93 7.01 56.73 6.72L56.73 6.72L56.73 6.72Q56.53 6.43 56.39 6.15L56.39 6.15L56.39 6.15Q56.26 5.86 56.19 5.56L56.19 5.56L56.19 5.56Q56.12 5.26 56.12 4.92L56.12 4.92L56.12 4.92Q56.12 4.45 56.27 4.07L56.27 4.07L56.27 4.07Q56.42 3.70 56.75 3.42L56.75 3.42L56.75 3.42Q57.07 3.15 57.57 3.00L57.57 3.00L57.57 3.00Q58.07 2.86 58.77 2.86L58.77 2.86L58.77 2.86Q59.44 2.86 59.91 3.01L59.91 3.01L59.91 3.01Q60.38 3.17 60.68 3.45L60.68 3.45L60.68 3.45Q60.98 3.72 61.11 4.08L61.11 4.08L61.11 4.08Q61.24 4.44 61.24 4.85L61.24 4.85L61.24 4.85Q61.24 5.30 61.11 5.65L61.11 5.65L61.11 5.65Q60.98 6.00 60.70 6.29L60.70 6.29L60.70 6.29Q60.42 6.58 59.97 6.85L59.97 6.85L59.97 6.85Q59.52 7.11 58.88 7.38L58.88 7.38L61.43 10.08L61.43 10.08Q61.52 9.77 61.58 9.44L61.58 9.44L61.58 9.44Q61.65 9.12 61.68 8.81L61.68 8.81L61.68 8.81Q61.72 8.50 61.74 8.20L61.74 8.20L61.74 8.20Q61.75 7.90 61.75 7.65L61.75 7.65L61.75 7.10L64.27 7.10L64.27 7.69L64.14 7.69L64.14 7.69Q63.91 7.69 63.68 7.72L63.68 7.72L63.68 7.72Q63.46 7.75 63.26 7.84L63.26 7.84L63.26 7.84Q63.07 7.94 62.91 8.13L62.91 8.13L62.91 8.13Q62.76 8.32 62.67 8.64L62.67 8.64L62.67 8.64Q62.55 9.09 62.39 9.62L62.39 9.62L62.39 9.62Q62.23 10.14 61.99 10.67L61.99 10.67L63.29 12.06L63.29 12.06Q63.39 12.16 63.50 12.23L63.50 12.23L63.50 12.23Q63.61 12.30 63.76 12.34L63.76 12.34L63.76 12.34Q63.90 12.38 64.10 12.39L64.10 12.39L64.10 12.39Q64.31 12.41 64.59 12.41L64.59 12.41L64.72 12.41L64.72 13.00ZM58.42 12.35L58.42 12.35L58.42 12.35Q58.83 12.35 59.18 12.27L59.18 12.27L59.18 12.27Q59.53 12.18 59.83 12.03L59.83 12.03L59.83 12.03Q60.12 11.88 60.37 11.67L60.37 11.67L60.37 11.67Q60.61 11.46 60.81 11.22L60.81 11.22L57.72 7.90L57.72 7.90Q57.39 8.08 57.14 8.30L57.14 8.30L57.14 8.30Q56.88 8.51 56.70 8.79L56.70 8.79L56.70 8.79Q56.52 9.08 56.42 9.43L56.42 9.43L56.42 9.43Q56.33 9.79 56.33 10.24L56.33 10.24L56.33 10.24Q56.33 10.75 56.48 11.15L56.48 11.15L56.48 11.15Q56.63 11.54 56.91 11.81L56.91 11.81L56.91 11.81Q57.18 12.08 57.57 12.22L57.57 12.22L57.57 12.22Q57.95 12.35 58.42 12.35ZM60.01 4.86L60.01 4.86L60.01 4.86Q60.01 4.58 59.94 4.34L59.94 4.34L59.94 4.34Q59.88 4.10 59.72 3.93L59.72 3.93L59.72 3.93Q59.57 3.75 59.32 3.65L59.32 3.65L59.32 3.65Q59.07 3.55 58.71 3.55L58.71 3.55L58.71 3.55Q58.09 3.55 57.76 3.91L57.76 3.91L57.76 3.91Q57.42 4.27 57.42 4.87L57.42 4.87L57.42 4.87Q57.42 5.14 57.48 5.37L57.48 5.37L57.48 5.37Q57.53 5.61 57.65 5.83L57.65 5.83L57.65 5.83Q57.77 6.06 57.96 6.31L57.96 6.31L57.96 6.31Q58.14 6.56 58.41 6.85L58.41 6.85L58.41 6.85Q58.82 6.67 59.12 6.47L59.12 6.47L59.12 6.47Q59.42 6.28 59.62 6.04L59.62 6.04L59.62 6.04Q59.82 5.80 59.92 5.52L59.92 5.52L59.92 5.52Q60.01 5.23 60.01 4.86ZM71.76 8.11L71.76 12.30L74.46 12.30L74.46 12.30Q74.79 12.30 75.03 12.21L75.03 12.21L75.03 12.21Q75.26 12.11 75.42 11.96L75.42 11.96L75.42 11.96Q75.58 11.80 75.67 11.59L75.67 11.59L75.67 11.59Q75.76 11.38 75.79 11.15L75.79 11.15L75.89 10.55L76.62 10.55L76.52 13.00L69.02 13.00L69.02 12.41L69.19 12.41L69.19 12.41Q69.43 12.41 69.63 12.38L69.63 12.38L69.63 12.38Q69.84 12.35 70 12.25L70 12.25L70 12.25Q70.16 12.15 70.25 11.97L70.25 11.97L70.25 11.97Q70.34 11.78 70.34 11.47L70.34 11.47L70.34 4.59L70.34 4.59Q70.34 4.27 70.25 4.07L70.25 4.07L70.25 4.07Q70.16 3.87 70.01 3.76L70.01 3.76L70.01 3.76Q69.85 3.66 69.64 3.62L69.64 3.62L69.64 3.62Q69.43 3.59 69.19 3.59L69.19 3.59L69.02 3.59L69.02 3.00L76.07 3.00L76.14 5.45L75.41 5.45L75.35 4.85L75.35 4.85Q75.32 4.61 75.24 4.41L75.24 4.41L75.24 4.41Q75.16 4.20 75.01 4.04L75.01 4.04L75.01 4.04Q74.87 3.88 74.65 3.79L74.65 3.79L74.65 3.79Q74.42 3.70 74.11 3.70L74.11 3.70L71.76 3.70L71.76 7.42L75.13 7.42L75.13 8.11L71.76 8.11ZM79.26 10.96L79.26 10.96L79.26 10.96Q79.26 11.62 79.54 11.95L79.54 11.95L79.54 11.95Q79.82 12.27 80.40 12.27L80.40 12.27L80.40 12.27Q80.82 12.27 81.17 12.13L81.17 12.13L81.17 12.13Q81.51 12.00 81.75 11.74L81.75 11.74L81.75 11.74Q82.00 11.49 82.13 11.13L82.13 11.13L82.13 11.13Q82.26 10.77 82.26 10.32L82.26 10.32L82.26 9.19L81.36 9.23L81.36 9.23Q80.77 9.26 80.37 9.38L80.37 9.38L80.37 9.38Q79.97 9.50 79.72 9.71L79.72 9.71L79.72 9.71Q79.47 9.93 79.37 10.24L79.37 10.24L79.37 10.24Q79.26 10.55 79.26 10.96ZM80.96 6.05L80.96 6.05L80.96 6.05Q80.55 6.05 80.31 6.16L80.31 6.16L80.31 6.16Q80.06 6.28 79.92 6.48L79.92 6.48L79.92 6.48Q79.78 6.69 79.73 6.97L79.73 6.97L79.73 6.97Q79.68 7.25 79.68 7.57L79.68 7.57L79.68 7.57Q79.10 7.57 78.79 7.38L78.79 7.38L78.79 7.38Q78.49 7.18 78.49 6.69L78.49 6.69L78.49 6.69Q78.49 6.33 78.69 6.08L78.69 6.08L78.69 6.08Q78.89 5.82 79.23 5.66L79.23 5.66L79.23 5.66Q79.58 5.50 80.04 5.43L80.04 5.43L80.04 5.43Q80.49 5.35 81.01 5.35L81.01 5.35L81.01 5.35Q81.66 5.35 82.13 5.48L82.13 5.48L82.13 5.48Q82.61 5.61 82.93 5.89L82.93 5.89L82.93 5.89Q83.25 6.18 83.42 6.64L83.42 6.64L83.42 6.64Q83.58 7.10 83.58 7.77L83.58 7.77L83.58 11.40L83.58 11.40Q83.58 11.70 83.62 11.89L83.62 11.89L83.62 11.89Q83.67 12.08 83.77 12.20L83.77 12.20L83.77 12.20Q83.88 12.31 84.04 12.36L84.04 12.36L84.04 12.36Q84.21 12.41 84.44 12.41L84.44 12.41L84.49 12.41L84.49 13.00L82.59 13.00L82.37 11.79L82.26 11.79L82.26 11.79Q82.04 12.09 81.83 12.33L81.83 12.33L81.83 12.33Q81.63 12.58 81.38 12.76L81.38 12.76L81.38 12.76Q81.14 12.93 80.82 13.03L80.82 13.03L80.82 13.03Q80.51 13.13 80.08 13.13L80.08 13.13L80.08 13.13Q79.61 13.13 79.21 13.00L79.21 13.00L79.21 13.00Q78.81 12.87 78.52 12.59L78.52 12.59L78.52 12.59Q78.23 12.31 78.07 11.89L78.07 11.89L78.07 11.89Q77.90 11.47 77.90 10.90L77.90 10.90L77.90 10.90Q77.90 9.78 78.70 9.24L78.70 9.24L78.70 9.24Q79.49 8.70 81.09 8.65L81.09 8.65L82.26 8.61L82.26 7.77L82.26 7.77Q82.26 7.40 82.22 7.08L82.22 7.08L82.22 7.08Q82.17 6.76 82.04 6.53L82.04 6.53L82.04 6.53Q81.90 6.30 81.65 6.18L81.65 6.18L81.65 6.18Q81.39 6.05 80.96 6.05ZM88.03 13.13L88.03 13.13L88.03 13.13Q87.50 13.13 87.07 13.04L87.07 13.04L87.07 13.04Q86.65 12.95 86.34 12.76L86.34 12.76L86.34 12.76Q86.04 12.57 85.88 12.29L85.88 12.29L85.88 12.29Q85.72 12.02 85.72 11.65L85.72 11.65L85.72 11.65Q85.72 11.37 85.81 11.18L85.81 11.18L85.81 11.18Q85.90 10.99 86.03 10.88L86.03 10.88L86.03 10.88Q86.17 10.77 86.32 10.73L86.32 10.73L86.32 10.73Q86.47 10.68 86.60 10.68L86.60 10.68L86.60 10.68Q86.60 11.05 86.67 11.38L86.67 11.38L86.67 11.38Q86.75 11.70 86.93 11.94L86.93 11.94L86.93 11.94Q87.10 12.18 87.39 12.32L87.39 12.32L87.39 12.32Q87.68 12.46 88.11 12.46L88.11 12.46L88.11 12.46Q88.48 12.46 88.77 12.37L88.77 12.37L88.77 12.37Q89.06 12.28 89.25 12.11L89.25 12.11L89.25 12.11Q89.45 11.94 89.55 11.71L89.55 11.71L89.55 11.71Q89.65 11.47 89.65 11.19L89.65 11.19L89.65 11.19Q89.65 10.93 89.57 10.74L89.57 10.74L89.57 10.74Q89.50 10.55 89.30 10.39L89.30 10.39L89.30 10.39Q89.11 10.23 88.77 10.06L88.77 10.06L88.77 10.06Q88.44 9.88 87.93 9.67L87.93 9.67L87.93 9.67Q87.39 9.43 86.99 9.20L86.99 9.20L86.99 9.20Q86.59 8.98 86.33 8.72L86.33 8.72L86.33 8.72Q86.07 8.46 85.94 8.13L85.94 8.13L85.94 8.13Q85.81 7.80 85.81 7.34L85.81 7.34L85.81 7.34Q85.81 6.86 86.00 6.49L86.00 6.49L86.00 6.49Q86.19 6.13 86.54 5.88L86.54 5.88L86.54 5.88Q86.88 5.63 87.37 5.50L87.37 5.50L87.37 5.50Q87.86 5.37 88.45 5.37L88.45 5.37L88.45 5.37Q88.95 5.37 89.33 5.47L89.33 5.47L89.33 5.47Q89.71 5.57 89.97 5.75L89.97 5.75L89.97 5.75Q90.23 5.92 90.36 6.16L90.36 6.16L90.36 6.16Q90.49 6.39 90.49 6.65L90.49 6.65L90.49 6.65Q90.49 7.03 90.23 7.26L90.23 7.26L90.23 7.26Q89.97 7.49 89.48 7.49L89.48 7.49L89.48 7.49Q89.48 6.79 89.19 6.40L89.19 6.40L89.19 6.40Q88.90 6.01 88.28 6.01L88.28 6.01L88.28 6.01Q87.92 6.01 87.67 6.09L87.67 6.09L87.67 6.09Q87.42 6.17 87.26 6.32L87.26 6.32L87.26 6.32Q87.10 6.47 87.02 6.68L87.02 6.68L87.02 6.68Q86.95 6.88 86.95 7.13L86.95 7.13L86.95 7.13Q86.95 7.40 87.04 7.59L87.04 7.59L87.04 7.59Q87.14 7.79 87.35 7.95L87.35 7.95L87.35 7.95Q87.55 8.11 87.89 8.27L87.89 8.27L87.89 8.27Q88.22 8.42 88.68 8.61L88.68 8.61L88.68 8.61Q89.24 8.85 89.63 9.07L89.63 9.07L89.63 9.07Q90.03 9.30 90.29 9.56L90.29 9.56L90.29 9.56Q90.54 9.83 90.67 10.17L90.67 10.17L90.67 10.17Q90.79 10.50 90.79 10.94L90.79 10.94L90.79 10.94Q90.79 11.48 90.59 11.89L90.59 11.89L90.59 11.89Q90.39 12.30 90.03 12.58L90.03 12.58L90.03 12.58Q89.67 12.86 89.16 13.00L89.16 13.00L89.16 13.00Q88.65 13.13 88.03 13.13ZM96.40 5.49L99.31 5.49L99.31 6.08L99.27 6.08L99.27 6.08Q99.07 6.08 98.92 6.12L98.92 6.12L98.92 6.12Q98.77 6.17 98.65 6.29L98.65 6.29L98.65 6.29Q98.53 6.41 98.43 6.62L98.43 6.62L98.43 6.62Q98.33 6.84 98.21 7.17L98.21 7.17L96.08 13.05L96.08 13.05Q95.83 13.73 95.61 14.24L95.61 14.24L95.61 14.24Q95.40 14.75 95.16 15.12L95.16 15.12L95.16 15.12Q94.92 15.48 94.63 15.72L94.63 15.72L94.63 15.72Q94.35 15.96 93.99 16.11L93.99 16.11L93.99 16.11Q93.63 16.25 93.15 16.30L93.15 16.30L93.15 16.30Q92.68 16.36 92.06 16.36L92.06 16.36L91.94 16.36L91.94 15.70L91.94 15.70Q92.65 15.70 93.16 15.48L93.16 15.48L93.16 15.48Q93.67 15.27 94.05 14.90L94.05 14.90L94.05 14.90Q94.42 14.53 94.67 14.03L94.67 14.03L94.67 14.03Q94.92 13.53 95.09 12.94L95.09 12.94L92.50 6.82L92.50 6.82Q92.40 6.60 92.31 6.46L92.31 6.46L92.31 6.46Q92.22 6.32 92.11 6.23L92.11 6.23L92.11 6.23Q92.00 6.15 91.85 6.11L91.85 6.11L91.85 6.11Q91.70 6.08 91.50 6.08L91.50 6.08L91.46 6.08L91.46 5.49L94.82 5.49L94.82 6.08L94.78 6.08L94.78 6.08Q94.36 6.08 94.15 6.24L94.15 6.24L94.15 6.24Q93.94 6.41 93.94 6.75L93.94 6.75L93.94 6.75Q93.94 6.87 93.96 6.99L93.96 6.99L93.96 6.99Q93.99 7.11 94.05 7.27L94.05 7.27L95.07 9.76L95.07 9.76Q95.17 10.00 95.28 10.28L95.28 10.28L95.28 10.28Q95.38 10.57 95.47 10.85L95.47 10.85L95.47 10.85Q95.57 11.12 95.64 11.37L95.64 11.37L95.64 11.37Q95.72 11.61 95.74 11.79L95.74 11.79L95.79 11.79L95.79 11.79Q95.86 11.48 95.99 11.04L95.99 11.04L95.99 11.04Q96.13 10.60 96.30 10.10L96.30 10.10L97.24 7.37L97.24 7.37Q97.30 7.20 97.33 7.04L97.33 7.04L97.33 7.04Q97.36 6.88 97.36 6.77L97.36 6.77L97.36 6.77Q97.36 6.41 97.14 6.24L97.14 6.24L97.14 6.24Q96.91 6.08 96.44 6.08L96.44 6.08L96.40 6.08L96.40 5.49Z"></path></g><!----><g data-v-423bf9ae="" id="8bc9f3fb-ccf9-4376-b4c4-1165daaa63db" transform="matrix(1.1115470038519966,0,0,1.1115470038519966,-20.119945445794535,0.4007351079200987)" stroke="none" fill="black"><path d="M27.209 5.382l-.333 15.851s1.69-.558 5.371-.598c4.237-.045 4.901.598 4.901.598V5.382s.56.116.56-.819c0 0 .244-2.844-.56-2.923 0 0-.318-1.639-5.169-1.639-4.504 0-4.769 1.641-4.769 1.641-.805.079-.561 2.923-.561 2.923-.001.934.56.817.56.817zM32.016 22.492c-3.45 0-5.191.607-5.191.607C25.188 28.682 19 31.568 19 41.156v55.609c0 1.544 6.317 3.255 12.727 3.275 6.601.023 13.3-1.688 13.3-3.275V68.252l-.003-4.405.012.172v-22.69c0-9.59-6.252-12.647-7.886-18.23-.001 0-1.594-.607-5.134-.607zM42.629 68.92s-4.871.464-10.787.464c-7.31 0-10.44-.464-10.44-.464V40.964s3.942-.87 10.151-.87c6.206 0 11.076.87 11.076.87V68.92zM80.156 97.033l-12.084-2.581c-1.601-.492-1.324-.532-1.402-1.97V68.45c.141-2.173.166-3.356 1.547-4.346 15.4-10.173 11.161-17.931 8.199-38.823h-.026s-3.467-2.154-10.935-2.154c-7.469 0-11.676 2.154-11.676 2.154-2.966 20.892-7.203 28.65 8.197 38.823 1.381.989 1.406 2.173 1.551 4.346v24.032c-.078 1.422.192 1.478-1.407 1.97l-12.083 2.581v.051c0 .664 6.748 2.493 15.07 2.493s15.07-1.829 15.07-2.493l-.021-.051zm-15.049-34.89c-1.39 0-2.514-.69-2.514-.69-9.393-6.202-9.848-10.913-9.221-18.404 0 0 3.465-1.294 11.648-1.294 8.08 0 11.822 1.294 11.822 1.294.567 7.131.174 12.202-9.222 18.404.002-.001-1.124.69-2.513.69z"></path></g><!----><g data-v-423bf9ae="" id="fd29f09f-7f45-4ffe-be04-a705003c674c" fill="black" transform="matrix(1.3051647499016925,0,0,1.3051647499016925,86.52626848320125,57.25915455309747)"><path d="M7.95 3.22L7.95 2.21L1.13 2.21L1.13 11.48L7.95 11.48L7.95 10.47L2.18 10.47L2.18 7.35L7.34 7.35L7.34 6.33L2.18 6.33L2.18 3.22ZM23.88 2.21L22.55 2.21L19.80 5.85L17.05 2.21L15.72 2.21L19.17 6.69L15.47 11.48L16.80 11.48L19.80 7.50L22.81 11.48L24.14 11.48L20.44 6.69ZM35.83 10.57C33.57 10.57 32.31 8.93 32.31 6.85C32.31 4.76 33.57 3.12 35.83 3.12C37.35 3.12 38.36 3.85 38.84 4.98L39.94 4.98C39.35 3.29 37.84 2.10 35.74 2.10C32.96 2.10 31.26 4.21 31.26 6.85C31.26 9.48 32.96 11.59 35.74 11.59C37.84 11.59 39.35 10.40 39.94 8.71L38.84 8.71C38.36 9.84 37.35 10.57 35.83 10.57ZM55.33 3.22L55.33 2.21L48.51 2.21L48.51 11.48L55.33 11.48L55.33 10.47L49.56 10.47L49.56 7.35L54.71 7.35L54.71 6.33L49.56 6.33L49.56 3.22ZM64.02 2.21L64.02 11.48L70.13 11.48L70.13 10.47L65.07 10.47L65.07 2.21ZM78.48 2.21L78.48 11.48L84.59 11.48L84.59 10.47L79.53 10.47L79.53 2.21ZM99.76 3.22L99.76 2.21L92.95 2.21L92.95 11.48L99.76 11.48L99.76 10.47L94.00 10.47L94.00 7.35L99.15 7.35L99.15 6.33L94.00 6.33L94.00 3.22ZM115.40 2.21L115.40 10.01L109.68 2.21L108.46 2.21L108.46 11.48L109.51 11.48L109.51 3.65L115.23 11.48L116.45 11.48L116.45 2.21ZM129.70 10.57C127.44 10.57 126.18 8.93 126.18 6.85C126.18 4.76 127.44 3.12 129.70 3.12C131.22 3.12 132.23 3.85 132.71 4.98L133.81 4.98C133.22 3.29 131.71 2.10 129.61 2.10C126.83 2.10 125.13 4.21 125.13 6.85C125.13 9.48 126.83 11.59 129.61 11.59C131.71 11.59 133.22 10.40 133.81 8.71L132.71 8.71C132.23 9.84 131.22 10.57 129.70 10.57ZM149.20 3.22L149.20 2.21L142.38 2.21L142.38 11.48L149.20 11.48L149.20 10.47L143.43 10.47L143.43 7.35L148.58 7.35L148.58 6.33L143.43 6.33L143.43 3.22ZM168.92 2.21L167.87 2.21L167.87 11.48L168.92 11.48ZM185.14 2.21L185.14 10.01L179.41 2.21L178.19 2.21L178.19 11.48L179.24 11.48L179.24 3.65L184.97 11.48L186.19 11.48L186.19 2.21ZM211.01 3.70L213.51 11.48L214.70 11.48L217.59 2.21L216.48 2.21L214.10 10.00L211.61 2.21L210.41 2.21L207.91 10.00L205.53 2.21L204.43 2.21L207.31 11.48L208.50 11.48ZM226.90 2.21L225.85 2.21L225.85 11.48L226.90 11.48ZM243.11 2.21L243.11 10.01L237.38 2.21L236.17 2.21L236.17 11.48L237.22 11.48L237.22 3.65L242.94 11.48L244.16 11.48L244.16 2.21ZM260.25 3.22L260.25 2.21L253.43 2.21L253.43 11.48L260.25 11.48L260.25 10.47L254.48 10.47L254.48 7.35L259.63 7.35L259.63 6.33L254.48 6.33L254.48 3.22Z"></path></g></svg>