<svg xmlns="http://www.w3.org/2000/svg" version="1.1" xmlns:xlink="http://www.w3.org/1999/xlink" xmlns:svgjs="http://svgjs.dev/svgjs" width="1000" height="623" viewBox="0 0 1000 623"><g transform="matrix(1,0,0,1,-0.6060511477347745,0.2522267206477409)"><svg viewBox="0 0 396 247" data-background-color="#274c77" preserveAspectRatio="xMidYMid meet" height="623" width="1000" xmlns="http://www.w3.org/2000/svg" xmlns:xlink="http://www.w3.org/1999/xlink"><g id="tight-bounds" transform="matrix(1,0,0,1,0.23999630469313615,-0.09999999999999432)"><svg viewBox="0 0 395.52 247.2" height="247.2" width="395.52"><g><svg viewBox="0 0 395.52 247.2" height="247.2" width="395.52"><g transform="matrix(1,0,0,1,0,93.16926795827847)"><svg viewBox="0 0 395.52 60.861464083443046" height="60.861464083443046" width="395.52"><g><svg viewBox="0 0 395.52 60.861464083443046" height="60.861464083443046" width="395.52"><g><svg viewBox="0 0 395.52 60.861464083443046" height="60.861464083443046" width="395.52"><g id="textblocktransform"><svg viewBox="0 0 395.52 60.861464083443046" height="60.861464083443046" width="395.52" id="textblock"><g><svg viewBox="0 0 395.52 32.82576554760595" height="32.82576554760595" width="395.52"><g transform="matrix(1,0,0,1,0,0)"><svg width="395.52" viewBox="1 -37.5 454.2099914550781 37.70000076293945" height="32.82576554760595" data-palette-color="#ffffff"><path d="M18.15 0L8.1 0 8.1-2.75 11.35-2.75 11.35-32 4-32 3.45-27.4 1-27.8 1.6-35 24.4-35 25.05-27.8 22.55-27.4 21.95-32 14.5-32 14.5-2.75 18.15-2.75 18.15 0ZM30.9-22.5L27.55-22.5 27.55-25 34.15-25 34.15-2.5 37.9-2.5 37.9 0 27.8 0 27.8-2.5 30.9-2.5 30.9-22.5ZM32.45-31.7Q31.45-31.7 30.9-32.33 30.35-32.95 30.35-33.98 30.35-35 30.92-35.63 31.5-36.25 32.5-36.25 33.5-36.25 34.12-35.63 34.75-35 34.75-33.93 34.75-32.85 34.1-32.27 33.45-31.7 32.45-31.7ZM43.3-11.2L43.3-11.2Q43.3-6.75 45.85-4.73 48.4-2.7 51.8-2.7L51.8-2.7Q54-2.7 56.32-3.13 58.65-3.55 59.4-3.9L59.4-3.9 60.05-1.55Q58.9-0.8 56.27-0.3 53.65 0.2 51.47 0.2 49.3 0.2 47.57-0.25 45.85-0.7 44.05-1.85 42.25-3 41.2-5.45 40.15-7.9 40.15-11.45L40.15-11.45Q40.15-18.05 43.55-21.55L43.55-21.55Q47.1-25.2 51.8-25.2 56.5-25.2 58.97-22.6 61.45-20 61.45-15.3L61.45-15.3Q61.45-14.3 61.3-13.15L61.3-13.15 43.45-13.15Q43.3-12.1 43.3-11.2ZM58.45-15.65L58.45-15.65Q58.45-18.75 56.59-20.43 54.75-22.1 52.3-22.1L52.3-22.1Q48.95-22.1 46.75-20.08 44.55-18.05 43.8-15.1L43.8-15.1 58.45-15.1Q58.45-15.4 58.45-15.65ZM71.24-16.75L71.24-2.5 75.39-2.5 75.39 0 64.89 0 64.89-2.5 67.99-2.5 67.99-22.5 64.64-22.5 64.64-25 71.24-25 71.24-18.95Q75.19-24.75 78.99-24.85L78.99-24.85Q79.29-24.85 79.59-24.85L79.59-24.85 82.39-24.5 81.09-21.5Q80.14-21.95 78.64-21.95L78.64-21.95Q75.04-21.9 71.24-16.75L71.24-16.75ZM99.39-22.5L97.34-22.5 97.34-25 107.84-25 107.84-22.5 103.14-22.5 94.74-13.3 104.24-2.5 108.99-2.5 108.99 0 102.64 0 91.49-13.3 91.49-2.5 95.24-2.5 95.24 0 85.14 0 85.14-2.5 88.24-2.5 88.24-35 84.89-35 84.89-37.5 91.49-37.5 91.49-13.3 99.39-22.5ZM118.29 0.2L118.29 0.2Q111.64 0.2 111.24-5.05L111.24-5.05Q111.19-5.4 111.19-5.75L111.19-5.75Q111.19-9.95 116.24-11.35L116.24-11.35Q119.04-12.05 127.04-12.95L127.04-12.95 127.04-16.8Q127.04-22.25 121.34-22.25L121.34-22.25Q117.24-22.2 112.64-20.35L112.64-20.35 111.79-22.5 112.29-22.7Q116.19-24.4 118.24-24.75 120.29-25.1 121.24-25.13 122.19-25.15 123.06-25.1 123.94-25.05 125.34-24.65 126.74-24.25 127.76-23.53 128.79-22.8 129.54-21.35 130.29-19.9 130.29-17.9L130.29-17.9 130.29-2.5 134.14-2.5 134.14 0 127.54 0 127.04-1.9Q122.54 0.2 118.29 0.2ZM119.19-2.1L119.19-2.1Q122.99-2.1 127.04-3.8L127.04-3.8 127.04-10.95Q119.54-10.7 117.34-9.95L117.34-9.95Q115.64-9.5 114.94-8.33 114.24-7.15 114.24-6.45 114.24-5.75 114.24-5.5L114.24-5.5Q114.39-3.7 115.79-2.9 117.19-2.1 119.19-2.1ZM145.54-2.45L145.54-2.45 147.49-2.55 147.64-0.55Q147.59-0.55 146.94-0.4L146.94-0.4Q145.44-0.05 143.59-0.05L143.59-0.05Q141.89-0.15 140.49-0.63 139.09-1.1 137.89-2.63 136.69-4.15 136.69-6.55L136.69-6.55 136.69-22.1 134.14-22.1 134.54-24.5 136.74-24.95 137.14-29.75 139.94-30 139.94-25 145.99-25 145.99-22.1 139.94-22.1 139.94-7.4Q139.94-2.45 145.54-2.45ZM168.78-32.25L165.58-32.25 165.58-35 175.68-35 175.68-32.25 171.93-32.25 178.88-5.05 187.13-35 189.93-35 197.73-4.95 205.23-32.25 202.23-32.25 202.23-35 212.03-35 212.03-32.25 208.43-32.25 199.03 0 195.98 0 188.43-29.8 180.18 0 177.08 0 168.78-32.25ZM217.23-22.5L213.88-22.5 213.88-25 220.48-25 220.48-2.5 224.23-2.5 224.23 0 214.13 0 214.13-2.5 217.23-2.5 217.23-22.5ZM218.78-31.7Q217.78-31.7 217.23-32.33 216.68-32.95 216.68-33.98 216.68-35 217.25-35.63 217.83-36.25 218.83-36.25 219.83-36.25 220.45-35.63 221.08-35 221.08-33.93 221.08-32.85 220.43-32.27 219.78-31.7 218.78-31.7ZM229.48-22.5L226.13-22.5 226.13-25 232.73-25 232.73-22.2Q236.83-25 240.58-25.15L240.58-25.15Q244.23-25.15 246.13-23.7L246.13-23.7Q246.98-23.05 247.65-21.68 248.33-20.3 248.33-18.4L248.33-18.4 248.33-2.5 252.18-2.5 252.18 0 242.08 0 242.08-2.5 245.08-2.5 245.08-17.15Q245.08-22 239.38-22L239.38-22Q236.28-21.9 232.73-19.95L232.73-19.95 232.73-2.5 236.48-2.5 236.48 0 226.38 0 226.38-2.5 229.48-2.5 229.48-22.5ZM257.52-11.2L257.52-11.2Q257.52-6.75 260.07-4.73 262.62-2.7 266.02-2.7L266.02-2.7Q268.22-2.7 270.55-3.13 272.87-3.55 273.62-3.9L273.62-3.9 274.27-1.55Q273.12-0.8 270.5-0.3 267.87 0.2 265.7 0.2 263.52 0.2 261.8-0.25 260.07-0.7 258.27-1.85 256.47-3 255.42-5.45 254.37-7.9 254.37-11.45L254.37-11.45Q254.37-18.05 257.77-21.55L257.77-21.55Q261.32-25.2 266.02-25.2 270.72-25.2 273.2-22.6 275.67-20 275.67-15.3L275.67-15.3Q275.67-14.3 275.52-13.15L275.52-13.15 257.67-13.15Q257.52-12.1 257.52-11.2ZM272.67-15.65L272.67-15.65Q272.67-18.75 270.82-20.43 268.97-22.1 266.52-22.1L266.52-22.1Q263.17-22.1 260.97-20.08 258.77-18.05 258.02-15.1L258.02-15.1 272.67-15.1Q272.67-15.4 272.67-15.65ZM326.87 0L316.77 0 316.77-2.75 319.82-2.75 317.52-9.25 302.12-9.25 299.87-2.75 303.47-2.75 303.47 0 293.37 0 293.37-2.75 296.67-2.75 308.32-35 311.37-35 323.42-2.75 326.87-2.75 326.87 0ZM316.62-11.75L309.67-31.2 302.97-11.75 316.62-11.75ZM326.37-22.5L322.92-22.5 322.92-25 333.42-25 333.42-22.5 330.07-22.5 335.62-4.05 342.17-24.75 345.37-25 350.87-4.05 357.32-22.5 353.92-22.5 353.92-25 363.92-25 363.92-22.5 361.02-22.5 352.47 0 349.47 0 343.62-19.85 336.87 0 333.87 0 326.37-22.5ZM373.61 0.2L373.61 0.2Q366.96 0.2 366.56-5.05L366.56-5.05Q366.51-5.4 366.51-5.75L366.51-5.75Q366.51-9.95 371.56-11.35L371.56-11.35Q374.36-12.05 382.36-12.95L382.36-12.95 382.36-16.8Q382.36-22.25 376.66-22.25L376.66-22.25Q372.56-22.2 367.96-20.35L367.96-20.35 367.11-22.5 367.61-22.7Q371.51-24.4 373.56-24.75 375.61-25.1 376.56-25.13 377.51-25.15 378.39-25.1 379.26-25.05 380.66-24.65 382.06-24.25 383.09-23.53 384.11-22.8 384.86-21.35 385.61-19.9 385.61-17.9L385.61-17.9 385.61-2.5 389.46-2.5 389.46 0 382.86 0 382.36-1.9Q377.86 0.2 373.61 0.2ZM374.51-2.1L374.51-2.1Q378.31-2.1 382.36-3.8L382.36-3.8 382.36-10.95Q374.86-10.7 372.66-9.95L372.66-9.95Q370.96-9.5 370.26-8.33 369.56-7.15 369.56-6.45 369.56-5.75 369.56-5.5L369.56-5.5Q369.71-3.7 371.11-2.9 372.51-2.1 374.51-2.1ZM398.01-16.75L398.01-2.5 402.16-2.5 402.16 0 391.66 0 391.66-2.5 394.76-2.5 394.76-22.5 391.41-22.5 391.41-25 398.01-25 398.01-18.95Q401.96-24.75 405.76-24.85L405.76-24.85Q406.06-24.85 406.36-24.85L406.36-24.85 409.16-24.5 407.86-21.5Q406.91-21.95 405.41-21.95L405.41-21.95Q401.81-21.9 398.01-16.75L398.01-16.75ZM414.61-1.85L414.61-1.85Q412.86-3 411.78-5.48 410.71-7.95 410.71-11.5L410.71-11.5Q410.71-18.05 414.06-21.5L414.06-21.5Q417.61-25.2 422.16-25.2L422.16-25.2Q424.96-25.2 427.86-23.75L427.86-23.75 427.86-35 424.51-35 424.51-37.5 431.11-37.5 431.11-2.5 434.96-2.5 434.96 0 428.36 0 427.96-1.6Q425.11 0.2 421.41 0.2 417.71 0.2 414.61-1.85ZM427.86-4.05L427.86-4.05 427.86-21.6Q425.56-22.3 423.51-22.3L423.51-22.3Q419.21-22.3 416.58-19.48 413.96-16.65 413.96-11.55L413.96-11.55Q413.96-8.85 414.73-6.98 415.51-5.1 416.81-4.2L416.81-4.2Q419.06-2.7 422.06-2.7 425.06-2.7 427.86-4.05ZM440.56-8.05L440.81-3.25Q442.91-2.6 444.18-2.6 445.46-2.6 445.86-2.65L445.86-2.65Q448.46-2.7 450.21-3.75 451.96-4.8 451.96-6.7 451.96-8.6 450.58-9.65 449.21-10.7 447.26-11.25 445.31-11.8 443.36-12.45 441.41-13.1 440.03-14.5 438.66-15.9 438.66-18.15L438.66-18.15Q438.66-21.35 441.11-23.28 443.56-25.2 447.31-25.2L447.31-25.2Q450.11-25.2 452.96-24.2L452.96-24.2 453.86-23.85 453.86-18.1 451.41-17.75 451.21-22Q449.21-22.3 447.86-22.3L447.86-22.3Q445.11-22.3 443.51-21.23 441.91-20.15 441.91-18.48 441.91-16.8 443.28-15.85 444.66-14.9 446.61-14.35 448.56-13.8 450.51-13.13 452.46-12.45 453.83-10.93 455.21-9.4 455.21-6.95L455.21-6.95Q455.21-3.65 452.73-1.73 450.26 0.2 445.71 0.2 441.16 0.2 438.16-1.95L438.16-1.95 438.16-7.7 440.56-8.05Z" opacity="1" transform="matrix(1,0,0,1,0,0)" fill="#000000" class="undefined-text-0" data-fill-palette-color="primary" id="text-0"></path></svg></g></svg></g><g transform="matrix(1,0,0,1,0,40.57514097502257)"><svg viewBox="0 0 231.43774067661033 20.28632310842048" height="20.28632310842048" width="231.43774067661033"><g transform="matrix(1,0,0,1,0,0)"><svg width="231.43774067661033" viewBox="2.6500000953674316 -37.75 439.760009765625 38.54999923706055" height="20.28632310842048" data-palette-color="#ffffff"><path d="M22.15-12.65L19.95-12.65Q19.95-14.8 19.33-15.75 18.7-16.7 17.45-16.93 16.2-17.15 14.35-17.05L14.35-17.05 11.45-16.95 11.45-6.55Q11.45-5.2 11.43-4.17 11.4-3.15 11.3-2.5L11.3-2.5 19.9-2.6Q21.85-2.65 23.4-3.33 24.95-4 25.85-5.65 26.75-7.3 26.75-10.15L26.75-10.15 28.95-10.15 28.65 0 2.65 0 2.65-2.2Q4.3-2.3 5.03-2.9 5.75-3.5 5.95-4.7 6.15-5.9 6.15-7.75L6.15-7.75 6.15-28.55Q6.15-29.65 6.2-30.68 6.25-31.7 6.3-32.45L6.3-32.45Q5.45-32.4 4.45-32.35 3.45-32.3 2.65-32.25L2.65-32.25 2.65-35 27.05-35 27.3-25.95 25.1-25.95Q25.1-28.8 24.18-30.3 23.25-31.8 21.78-32.3 20.3-32.8 18.6-32.75L18.6-32.75 15.1-32.65Q13.55-32.65 12.75-32.13 11.95-31.6 11.7-30.43 11.45-29.25 11.45-27.25L11.45-27.25 11.45-19.4 19.7-19.4 19.4-23.7 22.15-23.7 22.15-12.65ZM41 0L32.6 0 32.6-2.05Q34-2.45 34.9-3.35 35.8-4.25 37.05-5.85L37.05-5.85 41.85-11.85Q41.1-12.8 40.15-14 39.2-15.2 38.35-16.35 37.5-17.5 36.9-18.2L36.9-18.2Q35.9-19.5 35.22-20.63 34.55-21.75 34.25-22.45L34.25-22.45 32.25-22.35 32.25-25 42.8-25 42.8-22.95Q40.8-22.9 40.67-21.98 40.55-21.05 42.1-19L42.1-19 44.8-15.45 48.5-19.9Q49.2-20.7 49.72-21.35 50.25-22 50.8-22.55L50.8-22.55 47.7-22.35 47.7-25 56.1-25 56.1-22.95Q54.85-22.55 53.92-21.93 53-21.3 52.12-20.38 51.25-19.45 50.1-18.05L50.1-18.05 46.45-13.6 52.95-5.65Q53.55-4.9 54.12-4.17 54.7-3.45 55.25-2.5L55.25-2.5 57.3-2.65 57.3 0 46.95 0 46.95-2.05Q48.25-2.1 48.62-2.7 49-3.3 48-4.5L48-4.5 43.5-9.9 39.95-5.15Q39.35-4.35 38.82-3.73 38.3-3.1 37.65-2.45L37.65-2.45 41-2.65 41 0ZM71.75 0.8L71.75 0.8Q68.4 0.8 65.6-0.73 62.8-2.25 61.12-5.1 59.45-7.95 59.45-12L59.45-12Q59.45-14.7 60.4-17.18 61.35-19.65 63.07-21.6 64.8-23.55 67.17-24.68 69.55-25.8 72.45-25.8L72.45-25.8Q75.4-25.8 77.5-24.9 79.6-24 80.72-22.55 81.85-21.1 81.85-19.4L81.85-19.4Q81.85-18.2 81.15-17.3 80.45-16.4 79.15-16.4L79.15-16.4Q77.7-16.35 77.1-17.28 76.5-18.2 76.5-19L76.5-19Q76.5-19.45 76.65-20.03 76.8-20.6 77.2-21.05L77.2-21.05Q76.8-22.1 75.9-22.6 75-23.1 74.05-23.25 73.1-23.4 72.45-23.4L72.45-23.4Q69.4-23.35 67.32-20.78 65.25-18.2 65.25-13.35L65.25-13.35Q65.25-10.25 66.17-7.8 67.1-5.35 68.9-3.9 70.7-2.45 73.2-2.4L73.2-2.4Q75.45-2.4 77.55-3.58 79.65-4.75 80.95-6.55L80.95-6.55 82.55-5.15Q81.1-2.9 79.22-1.6 77.35-0.3 75.42 0.25 73.5 0.8 71.75 0.8ZM97.89 0.8L97.89 0.8Q94.39 0.8 91.62-0.83 88.84-2.45 87.24-5.43 85.64-8.4 85.64-12.45L85.64-12.45Q85.64-15.95 87.22-19 88.79-22.05 91.64-23.93 94.49-25.8 98.24-25.8L98.24-25.8Q100.34-25.8 102.22-25.15 104.09-24.5 105.57-23.13 107.04-21.75 107.89-19.58 108.74-17.4 108.74-14.3L108.74-14.3 91.54-14Q91.54-10.6 92.32-7.95 93.09-5.3 94.84-3.85 96.59-2.4 99.39-2.4L99.39-2.4Q100.74-2.4 102.27-2.88 103.79-3.35 105.17-4.25 106.54-5.15 107.49-6.4L107.49-6.4 109.04-5.05Q107.54-2.8 105.59-1.53 103.64-0.25 101.62 0.28 99.59 0.8 97.89 0.8ZM91.74-16.6L91.74-16.6 103.29-16.6Q103.29-18.5 102.77-20.03 102.24-21.55 101.14-22.45 100.04-23.35 98.34-23.35L98.34-23.35Q95.69-23.35 93.99-21.68 92.29-20 91.74-16.6ZM112.34 0L112.34-2.1Q113.84-2.1 114.44-2.8 115.04-3.5 115.17-4.75 115.29-6 115.29-7.65L115.29-7.65 115.29-30.25Q115.29-31.1 115.32-31.98 115.34-32.85 115.44-33.85L115.44-33.85Q114.59-33.8 113.64-33.77 112.69-33.75 111.94-33.7L111.94-33.7 111.94-36.35Q114.19-36.35 115.52-36.58 116.84-36.8 117.57-37.1 118.29-37.4 118.64-37.75L118.64-37.75 120.54-37.75 120.54-6.2Q120.54-5.3 120.49-4.38 120.44-3.45 120.34-2.5L120.34-2.5Q121.14-2.55 121.97-2.58 122.79-2.6 123.49-2.65L123.49-2.65 123.49 0 112.34 0ZM126.59 0L126.59-2.1Q128.09-2.1 128.69-2.8 129.29-3.5 129.41-4.75 129.54-6 129.54-7.65L129.54-7.65 129.54-30.25Q129.54-31.1 129.56-31.98 129.59-32.85 129.69-33.85L129.69-33.85Q128.84-33.8 127.89-33.77 126.94-33.75 126.19-33.7L126.19-33.7 126.19-36.35Q128.44-36.35 129.76-36.58 131.09-36.8 131.81-37.1 132.54-37.4 132.89-37.75L132.89-37.75 134.79-37.75 134.79-6.2Q134.79-5.3 134.74-4.38 134.69-3.45 134.59-2.5L134.59-2.5Q135.39-2.55 136.21-2.58 137.04-2.6 137.74-2.65L137.74-2.65 137.74 0 126.59 0ZM153.44 0.8L153.44 0.8Q149.94 0.8 147.16-0.83 144.39-2.45 142.79-5.43 141.19-8.4 141.19-12.45L141.19-12.45Q141.19-15.95 142.76-19 144.34-22.05 147.19-23.93 150.04-25.8 153.79-25.8L153.79-25.8Q155.89-25.8 157.76-25.15 159.64-24.5 161.11-23.13 162.59-21.75 163.44-19.58 164.29-17.4 164.29-14.3L164.29-14.3 147.09-14Q147.09-10.6 147.86-7.95 148.64-5.3 150.39-3.85 152.14-2.4 154.94-2.4L154.94-2.4Q156.29-2.4 157.81-2.88 159.34-3.35 160.71-4.25 162.09-5.15 163.04-6.4L163.04-6.4 164.59-5.05Q163.09-2.8 161.14-1.53 159.19-0.25 157.16 0.28 155.14 0.8 153.44 0.8ZM147.29-16.6L147.29-16.6 158.84-16.6Q158.84-18.5 158.31-20.03 157.79-21.55 156.69-22.45 155.59-23.35 153.89-23.35L153.89-23.35Q151.24-23.35 149.54-21.68 147.84-20 147.29-16.6ZM179.63 0L168.48 0 168.48-2.1Q169.98-2.1 170.58-2.8 171.18-3.5 171.31-4.75 171.43-6 171.43-7.65L171.43-7.65 171.48-18.05Q171.48-18.85 171.51-19.78 171.53-20.7 171.68-21.6L171.68-21.6Q170.78-21.55 169.86-21.53 168.93-21.5 168.13-21.45L168.13-21.45 168.13-24.1Q170.38-24.1 171.66-24.33 172.93-24.55 173.61-24.85 174.28-25.15 174.63-25.5L174.63-25.5 176.43-25.5Q176.48-25.05 176.51-24.65 176.53-24.25 176.56-23.8 176.58-23.35 176.63-22.65L176.63-22.65Q177.73-23.55 179.03-24.25 180.33-24.95 181.76-25.38 183.18-25.8 184.48-25.8L184.48-25.8Q188.93-25.8 190.91-23.1 192.88-20.4 192.88-14.65L192.88-14.65 192.88-6.2Q192.88-5.3 192.83-4.38 192.78-3.45 192.68-2.5L192.68-2.5Q193.48-2.55 194.31-2.58 195.13-2.6 195.83-2.65L195.83-2.65 195.83 0 184.68 0 184.68-2.1Q186.18-2.1 186.78-2.8 187.38-3.5 187.51-4.75 187.63-6 187.63-7.65L187.63-7.65 187.63-14.65Q187.58-18.6 186.36-20.6 185.13-22.6 182.43-22.55L182.43-22.55Q180.83-22.55 179.28-21.75 177.73-20.95 176.68-19.8L176.68-19.8Q176.68-19.3 176.68-18.73 176.68-18.15 176.68-17.55L176.68-17.55 176.68-6.2Q176.68-5.3 176.63-4.38 176.58-3.45 176.48-2.5L176.48-2.5Q177.28-2.55 178.11-2.58 178.93-2.6 179.63-2.65L179.63-2.65 179.63 0ZM211.38 0.8L211.38 0.8Q208.03 0.8 205.23-0.73 202.43-2.25 200.76-5.1 199.08-7.95 199.08-12L199.08-12Q199.08-14.7 200.03-17.18 200.98-19.65 202.71-21.6 204.43-23.55 206.81-24.68 209.18-25.8 212.08-25.8L212.08-25.8Q215.03-25.8 217.13-24.9 219.23-24 220.36-22.55 221.48-21.1 221.48-19.4L221.48-19.4Q221.48-18.2 220.78-17.3 220.08-16.4 218.78-16.4L218.78-16.4Q217.33-16.35 216.73-17.28 216.13-18.2 216.13-19L216.13-19Q216.13-19.45 216.28-20.03 216.43-20.6 216.83-21.05L216.83-21.05Q216.43-22.1 215.53-22.6 214.63-23.1 213.68-23.25 212.73-23.4 212.08-23.4L212.08-23.4Q209.03-23.35 206.96-20.78 204.88-18.2 204.88-13.35L204.88-13.35Q204.88-10.25 205.81-7.8 206.73-5.35 208.53-3.9 210.33-2.45 212.83-2.4L212.83-2.4Q215.08-2.4 217.18-3.58 219.28-4.75 220.58-6.55L220.58-6.55 222.18-5.15Q220.73-2.9 218.86-1.6 216.98-0.3 215.06 0.25 213.13 0.8 211.38 0.8ZM237.53 0.8L237.53 0.8Q234.03 0.8 231.25-0.83 228.48-2.45 226.88-5.43 225.28-8.4 225.28-12.45L225.28-12.45Q225.28-15.95 226.85-19 228.43-22.05 231.28-23.93 234.13-25.8 237.88-25.8L237.88-25.8Q239.98-25.8 241.85-25.15 243.73-24.5 245.2-23.13 246.68-21.75 247.53-19.58 248.38-17.4 248.38-14.3L248.38-14.3 231.18-14Q231.18-10.6 231.95-7.95 232.73-5.3 234.48-3.85 236.23-2.4 239.03-2.4L239.03-2.4Q240.38-2.4 241.9-2.88 243.43-3.35 244.8-4.25 246.18-5.15 247.13-6.4L247.13-6.4 248.68-5.05Q247.18-2.8 245.23-1.53 243.28-0.25 241.25 0.28 239.23 0.8 237.53 0.8ZM231.38-16.6L231.38-16.6 242.93-16.6Q242.93-18.5 242.4-20.03 241.88-21.55 240.78-22.45 239.68-23.35 237.98-23.35L237.98-23.35Q235.33-23.35 233.63-21.68 231.93-20 231.38-16.6ZM265.72 0L265.72-2.1Q267.22-2.1 267.82-2.8 268.42-3.5 268.55-4.75 268.67-6 268.67-7.65L268.67-7.65 268.67-18Q268.67-18.85 268.72-19.73 268.77-20.6 268.87-21.6L268.87-21.6Q268.02-21.55 267.07-21.53 266.12-21.5 265.32-21.45L265.32-21.45 265.32-24.1Q267.57-24.1 268.9-24.33 270.22-24.55 270.95-24.85 271.67-25.15 272.02-25.5L272.02-25.5 273.92-25.5 273.92-6.2Q273.92-5.3 273.87-4.38 273.82-3.45 273.72-2.5L273.72-2.5Q274.52-2.55 275.35-2.58 276.17-2.6 276.87-2.65L276.87-2.65 276.87 0 265.72 0ZM271.07-30.1L271.07-30.1Q269.77-30.1 268.87-31.08 267.97-32.05 267.97-33.45L267.97-33.45Q267.97-34.85 268.92-35.83 269.87-36.8 271.07-36.8L271.07-36.8Q272.37-36.8 273.25-35.83 274.12-34.85 274.12-33.45L274.12-33.45Q274.12-32.05 273.25-31.08 272.37-30.1 271.07-30.1ZM291.67 0L280.52 0 280.52-2.1Q282.02-2.1 282.62-2.8 283.22-3.5 283.35-4.75 283.47-6 283.47-7.65L283.47-7.65 283.52-18.05Q283.52-18.85 283.55-19.78 283.57-20.7 283.72-21.6L283.72-21.6Q282.82-21.55 281.9-21.53 280.97-21.5 280.17-21.45L280.17-21.45 280.17-24.1Q282.42-24.1 283.7-24.33 284.97-24.55 285.65-24.85 286.32-25.15 286.67-25.5L286.67-25.5 288.47-25.5Q288.52-25.05 288.55-24.65 288.57-24.25 288.6-23.8 288.62-23.35 288.67-22.65L288.67-22.65Q289.77-23.55 291.07-24.25 292.37-24.95 293.8-25.38 295.22-25.8 296.52-25.8L296.52-25.8Q300.97-25.8 302.95-23.1 304.92-20.4 304.92-14.65L304.92-14.65 304.92-6.2Q304.92-5.3 304.87-4.38 304.82-3.45 304.72-2.5L304.72-2.5Q305.52-2.55 306.35-2.58 307.17-2.6 307.87-2.65L307.87-2.65 307.87 0 296.72 0 296.72-2.1Q298.22-2.1 298.82-2.8 299.42-3.5 299.55-4.75 299.67-6 299.67-7.65L299.67-7.65 299.67-14.65Q299.62-18.6 298.4-20.6 297.17-22.6 294.47-22.55L294.47-22.55Q292.87-22.55 291.32-21.75 289.77-20.95 288.72-19.8L288.72-19.8Q288.72-19.3 288.72-18.73 288.72-18.15 288.72-17.55L288.72-17.55 288.72-6.2Q288.72-5.3 288.67-4.38 288.62-3.45 288.52-2.5L288.52-2.5Q289.32-2.55 290.15-2.58 290.97-2.6 291.67-2.65L291.67-2.65 291.67 0ZM338.82 0.45L336.37 0.45 327.47-26.3Q326.72-28.55 326.29-29.95 325.87-31.35 325.72-32.35L325.72-32.35Q324.92-32.3 324.22-32.3 323.52-32.3 322.82-32.25L322.82-32.25 322.82-35 335.82-35 335.82-32.8Q333.27-32.7 332.59-31.7 331.92-30.7 332.67-27.9L332.67-27.9Q333.52-24.75 334.42-22.05 335.32-19.35 336.22-16.35L336.22-16.35Q336.82-14.3 337.44-12.53 338.07-10.75 338.72-8.4L338.72-8.4 338.77-8.4Q339.02-9.2 339.34-10.3 339.67-11.4 340.02-12.58 340.37-13.75 340.67-14.73 340.97-15.7 341.12-16.2L341.12-16.2Q342.32-20 343.49-23.65 344.67-27.3 345.62-30.25 346.57-33.2 347.07-35.05L347.07-35.05 349.67-35.05Q350.17-33.2 350.99-30.73 351.82-28.25 352.67-25.63 353.52-23 354.32-20.58 355.12-18.15 355.67-16.35L355.67-16.35Q356.32-14.3 356.99-12.23 357.67-10.15 358.22-7.95L358.22-7.95 358.32-7.95Q358.77-9.45 359.29-11.13 359.82-12.8 360.32-14.55L360.32-14.55Q361.32-17.45 361.99-19.55 362.67-21.65 363.12-23.2 363.57-24.75 363.94-26 364.32-27.25 364.72-28.45L364.72-28.45Q365.02-29.4 365.42-30.48 365.82-31.55 366.42-32.4L366.42-32.4Q365.47-32.35 364.39-32.33 363.32-32.3 362.47-32.25L362.47-32.25 362.47-35 372.97-35 372.97-32.8Q371.47-32.65 370.49-32.1 369.52-31.55 368.77-30.18 368.02-28.8 367.07-26.1L367.07-26.1Q364.87-19.35 362.74-12.75 360.62-6.15 358.37 0.45L358.37 0.45 355.87 0.45 348.87-20Q348.32-21.5 347.89-22.98 347.47-24.45 347.07-25.85L347.07-25.85Q346.72-24.45 346.32-23.08 345.92-21.7 345.47-20.3L345.47-20.3 338.82 0.45ZM373.61 0L373.61-2.1Q375.11-2.1 375.71-2.8 376.31-3.5 376.44-4.75 376.56-6 376.56-7.65L376.56-7.65 376.56-18Q376.56-18.85 376.61-19.73 376.66-20.6 376.76-21.6L376.76-21.6Q375.91-21.55 374.96-21.53 374.01-21.5 373.21-21.45L373.21-21.45 373.21-24.1Q375.46-24.1 376.79-24.33 378.11-24.55 378.84-24.85 379.56-25.15 379.91-25.5L379.91-25.5 381.81-25.5 381.81-6.2Q381.81-5.3 381.76-4.38 381.71-3.45 381.61-2.5L381.61-2.5Q382.41-2.55 383.24-2.58 384.06-2.6 384.76-2.65L384.76-2.65 384.76 0 373.61 0ZM378.96-30.1L378.96-30.1Q377.66-30.1 376.76-31.08 375.86-32.05 375.86-33.45L375.86-33.45Q375.86-34.85 376.81-35.83 377.76-36.8 378.96-36.8L378.96-36.8Q380.26-36.8 381.14-35.83 382.01-34.85 382.01-33.45L382.01-33.45Q382.01-32.05 381.14-31.08 380.26-30.1 378.96-30.1ZM399.56 0L388.41 0 388.41-2.1Q389.91-2.1 390.51-2.8 391.11-3.5 391.24-4.75 391.36-6 391.36-7.65L391.36-7.65 391.41-18.05Q391.41-18.85 391.44-19.78 391.46-20.7 391.61-21.6L391.61-21.6Q390.71-21.55 389.79-21.53 388.86-21.5 388.06-21.45L388.06-21.45 388.06-24.1Q390.31-24.1 391.59-24.33 392.86-24.55 393.54-24.85 394.21-25.15 394.56-25.5L394.56-25.5 396.36-25.5Q396.41-25.05 396.44-24.65 396.46-24.25 396.49-23.8 396.51-23.35 396.56-22.65L396.56-22.65Q397.66-23.55 398.96-24.25 400.26-24.95 401.69-25.38 403.11-25.8 404.41-25.8L404.41-25.8Q408.86-25.8 410.84-23.1 412.81-20.4 412.81-14.65L412.81-14.65 412.81-6.2Q412.81-5.3 412.76-4.38 412.71-3.45 412.61-2.5L412.61-2.5Q413.41-2.55 414.24-2.58 415.06-2.6 415.76-2.65L415.76-2.65 415.76 0 404.61 0 404.61-2.1Q406.11-2.1 406.71-2.8 407.31-3.5 407.44-4.75 407.56-6 407.56-7.65L407.56-7.65 407.56-14.65Q407.51-18.6 406.29-20.6 405.06-22.6 402.36-22.55L402.36-22.55Q400.76-22.55 399.21-21.75 397.66-20.95 396.61-19.8L396.61-19.8Q396.61-19.3 396.61-18.73 396.61-18.15 396.61-17.55L396.61-17.55 396.61-6.2Q396.61-5.3 396.56-4.38 396.51-3.45 396.41-2.5L396.41-2.5Q397.21-2.55 398.04-2.58 398.86-2.6 399.56-2.65L399.56-2.65 399.56 0ZM431.26 0.8L431.26 0.8Q427.76 0.8 424.98-0.83 422.21-2.45 420.61-5.43 419.01-8.4 419.01-12.45L419.01-12.45Q419.01-15.95 420.58-19 422.16-22.05 425.01-23.93 427.86-25.8 431.61-25.8L431.61-25.8Q433.71-25.8 435.58-25.15 437.46-24.5 438.93-23.13 440.41-21.75 441.26-19.58 442.11-17.4 442.11-14.3L442.11-14.3 424.91-14Q424.91-10.6 425.68-7.95 426.46-5.3 428.21-3.85 429.96-2.4 432.76-2.4L432.76-2.4Q434.11-2.4 435.63-2.88 437.16-3.35 438.53-4.25 439.91-5.15 440.86-6.4L440.86-6.4 442.41-5.05Q440.91-2.8 438.96-1.53 437.01-0.25 434.98 0.28 432.96 0.8 431.26 0.8ZM425.11-16.6L425.11-16.6 436.66-16.6Q436.66-18.5 436.13-20.03 435.61-21.55 434.51-22.45 433.41-23.35 431.71-23.35L431.71-23.35Q429.06-23.35 427.36-21.68 425.66-20 425.11-16.6Z" opacity="1" transform="matrix(1,0,0,1,0,0)" fill="#000000" class="undefined-text-1" data-fill-palette-color="secondary" id="text-1"></path></svg></g></svg></g></svg></g></svg></g></svg></g></svg></g></svg></g><defs></defs></svg><rect width="395.52" height="247.2" fill="none" stroke="none" visibility="hidden"></rect></g></svg></g></svg>